# xmcd
#
# Track frame offsets: 
#        150
#        8947
#        22987
#        37502
#        46960
#        56405
#        64502
#        71872
#        78940
#        89420
#        98592
#        109052
#        127442
#        136672
#        155692
#        168615
#        180934
#        192390
#        205357
#        214145
#        227472
#
# Disc length: 3159 seconds
#
# Revision: 0
# Processed by: cddbd v1.4PL0 Copyright (c) Steve Scherf et al.
# Submitted via: ExactAudioCopy v0.95a2
#
DISCID=170c5515
DTITLE=Girolamo Frescobaldi - Il Primo Libro de´ Madrigali: A Cinque V
DTITLE=oci - Anversa, 1608
DYEAR=1995
DGENRE=Baroque
TTITLE0=Fortunata per me, felice aurora
TTITLE1=Se la doglia e´l martire
TTITLE2=Afi, bella si, ma cruda mia nemica
TTITLE3=Da qual sfera del ciel fra noi discere
TTITLE4=Perché apess´a veder la vostra luce
TTITLE5=Amor ti chiama il mondo
TTITLE6=Tu pur mi fuggi ancora
TTITLE7=S´a la gelata mia, timida lingua
TTITLE8=Vezzosissima Filli
TTITLE9=Perché fuggi tra salci
TTITLE10=Giunté pur Lidia il mio (prima parte)
TTITLE11=Ecco l´hora, ecco ch´io(seconda parte)
TTITLE12=Lidia, ti lasso, ahi lasso (terza parte)
TTITLE13=S´io miro in te, m´uccidi
TTITLE14=Amor mio, perché piangi
TTITLE15=Lasso, io alnguisco e moro
TTITLE16=Cor mio, chi mi t´invola
TTITLE17=So ch´aveste in lasciarmi
TTITLE18=Qui dunque, ohime, qui dove
TTITLE19=Se lontana vio sete
TTITLE20=Come perder poss´io
EXTD=
EXTT0=
EXTT1=
EXTT2=
EXTT3=
EXTT4=
EXTT5=
EXTT6=
EXTT7=
EXTT8=
EXTT9=
EXTT10=
EXTT11=
EXTT12=
EXTT13=
EXTT14=
EXTT15=
EXTT16=
EXTT17=
EXTT18=
EXTT19=
EXTT20=
PLAYORDER=
